<svg width="83" height="83" viewBox="0 0 83 83" fill="none" xmlns="http://www.w3.org/2000/svg">
<path d="M81.8736 36.8867L45.4418 36.8867L45.4418 22.7841L67.3792 22.7841L67.3792 14.5576L45.4418 14.5576L45.4418 0.0631828L81.8736 0.0631812L81.8736 36.8867Z" fill="#4C51BF"/>
<path d="M9.15527e-05 45.505L36.4319 45.505L36.4319 59.6076L14.4945 59.6076L14.4945 67.8342L36.4319 67.8342L36.4319 82.3285L8.99431e-05 82.3285L9.15527e-05 45.505Z" fill="#4C51BF"/>
<path d="M0 36.495V0.0631714H14.1026V22.0006H22.3292V17.6915H36.8235V36.495H0Z" fill="#4C51BF"/>
<path d="M37.2654 16H22.2654V0H37.2654V16Z" fill="#090909"/>
<path d="M82.2654 45.505L82.2654 81.9368L68.1627 81.9368L68.1628 59.9993L59.9362 59.9993L59.9362 64.3085L45.4418 64.3085L45.4418 45.505L82.2654 45.505Z" fill="#4C51BF"/>
<path d="M45.2654 66L60.2654 66L60.2654 82L45.2654 82L45.2654 66Z" fill="#090909"/>
</svg>
